<svg xmlns="http://www.w3.org/2000/svg" width="46.998" height="30.999" viewBox="0 0 46.998 30.999">
  <g id="Group_170" data-name="Group 170" transform="translate(-451.001 -203.001)">
    <g id="Component_2_1" data-name="Component 2 – 1" transform="translate(451.001 203.001)">
      <g id="Subtraction_8" data-name="Subtraction 8" transform="translate(9023.999 -9756.001)" fill="none">
        <path d="M-8985,9773h-39v-17h39a8.007,8.007,0,0,1,8,8v1A8.008,8.008,0,0,1-8985,9773Z" stroke="none"/>
        <path d="M -8984.9990234375 9769 C -8982.794921875 9769 -8981.0009765625 9767.205078125 -8981.0009765625 9764.9990234375 L -8981.0009765625 9763.9990234375 C -8981.0009765625 9761.794921875 -8982.794921875 9760.0009765625 -8984.9990234375 9760.0009765625 L -9019.9990234375 9760.0009765625 L -9019.9990234375 9769 L -8984.9990234375 9769 M -8984.9990234375 9773 L -9023.9990234375 9773 L -9023.9990234375 9756.0009765625 L -8984.9990234375 9756.0009765625 C -8980.5888671875 9756.0009765625 -8977.0009765625 9759.5888671875 -8977.0009765625 9763.9990234375 L -8977.0009765625 9764.9990234375 C -8977.0009765625 9769.4111328125 -8980.5888671875 9773 -8984.9990234375 9773 Z" stroke="none" fill="#f3cf3d"/>
      </g>
      <g id="Subtraction_9" data-name="Subtraction 9" transform="translate(9023.999 -9742.001)" fill="none">
        <path d="M-8985,9773h-39v-17h39a8.007,8.007,0,0,1,8,8v1A8.008,8.008,0,0,1-8985,9773Z" stroke="none"/>
        <path d="M -8984.9990234375 9769 C -8982.794921875 9769 -8981.0009765625 9767.205078125 -8981.0009765625 9764.9990234375 L -8981.0009765625 9763.9990234375 C -8981.0009765625 9761.794921875 -8982.794921875 9760.0009765625 -8984.9990234375 9760.0009765625 L -9019.9990234375 9760.0009765625 L -9019.9990234375 9769 L -8984.9990234375 9769 M -8984.9990234375 9773 L -9023.9990234375 9773 L -9023.9990234375 9756.0009765625 L -8984.9990234375 9756.0009765625 C -8980.5888671875 9756.0009765625 -8977.0009765625 9759.5888671875 -8977.0009765625 9763.9990234375 L -8977.0009765625 9764.9990234375 C -8977.0009765625 9769.4111328125 -8980.5888671875 9773 -8984.9990234375 9773 Z" stroke="none" fill="#f3cf3d"/>
      </g>
    </g>
  </g>
</svg>
