<svg xmlns="http://www.w3.org/2000/svg" xmlns:xlink="http://www.w3.org/1999/xlink" width="205" height="205" viewBox="0 0 205 205">
  <defs>
    <clipPath id="clip-path">
      <rect id="Rectangle_121" data-name="Rectangle 121" width="205" height="205" fill="#7b8282" stroke="#707070" stroke-width="1"/>
    </clipPath>
  </defs>
  <g id="inta" clip-path="url(#clip-path)">
    <path id="instagram-brands" d="M102.489,64.484a52.548,52.548,0,1,0,52.548,52.548A52.464,52.464,0,0,0,102.489,64.484Zm0,86.711a34.163,34.163,0,1,1,34.163-34.163,34.225,34.225,0,0,1-34.163,34.163Zm66.954-88.86a12.257,12.257,0,1,1-12.257-12.257A12.228,12.228,0,0,1,169.442,62.335Zm34.8,12.439c-.777-16.418-4.528-30.962-16.555-42.944C175.708,19.848,161.165,16.1,144.746,15.275c-16.921-.96-67.64-.96-84.561,0-16.373.777-30.916,4.528-42.944,16.51S1.509,58.31.686,74.728c-.96,16.921-.96,67.64,0,84.561.777,16.418,4.528,30.962,16.555,42.944s26.525,15.732,42.944,16.555c16.921.96,67.64.96,84.561,0,16.418-.777,30.962-4.528,42.944-16.555,11.982-11.982,15.732-26.525,16.555-42.944.96-16.921.96-67.594,0-84.515ZM182.385,177.446A34.587,34.587,0,0,1,162.9,196.928c-13.491,5.351-45.5,4.116-60.414,4.116s-46.968,1.189-60.414-4.116a34.587,34.587,0,0,1-19.482-19.482c-5.351-13.491-4.116-45.5-4.116-60.414s-1.189-46.968,4.116-60.414A34.587,34.587,0,0,1,42.075,37.136c13.491-5.351,45.5-4.116,60.414-4.116s46.968-1.189,60.414,4.116a34.587,34.587,0,0,1,19.482,19.482c5.351,13.491,4.116,45.5,4.116,60.414S187.736,164,182.385,177.446Z" transform="translate(0.034 -14.532)" fill="#7b8282"/>
  </g>
</svg>
