<svg xmlns="http://www.w3.org/2000/svg" width="687.999" height="88" viewBox="0 0 687.999 88">
  <g id="newlogo" transform="translate(-172 -256)">
    <g id="Group_174" data-name="Group 174" transform="translate(172 257)">
      <rect id="Rectangle_109" data-name="Rectangle 109" width="58" height="28" fill="#f3cf3d"/>
      <rect id="Rectangle_110" data-name="Rectangle 110" width="80" height="28" transform="translate(69)" fill="#f3cf3d"/>
      <rect id="Rectangle_111" data-name="Rectangle 111" width="26" height="86" transform="translate(69)" fill="#f3cf3d"/>
    </g>
    <path id="Path_176" data-name="Path 176" d="M10369.254-9314h38.913l29,21.758,27.165-21.758h40.28l-53.129,41.329V-9228h-27.9v-44.671Z" transform="translate(-10016.254 9571)" fill="#f3cf3d"/>
    <g id="Group_173" data-name="Group 173" transform="translate(520 257)">
      <g id="Subtraction_11" data-name="Subtraction 11" transform="translate(0 0)" fill="none">
        <path d="M104.979,52.04H0V0H104.979a26.027,26.027,0,0,1,10.128,50A25.857,25.857,0,0,1,104.979,52.04Z" stroke="none"/>
        <path d="M 104.9787216186523 31.03978538513184 C 105.6849899291992 31.03978538513184 106.3037948608398 30.91716957092285 106.9262237548828 30.65394020080566 C 107.5298385620117 30.39859390258789 108.0538330078125 30.04390144348145 108.5282974243164 29.56947898864746 C 109.002685546875 29.0950927734375 109.3573760986328 28.57109451293945 109.6128005981445 27.96717071533203 C 109.8760299682617 27.34486198425293 109.9986038208008 26.72613143920898 109.9986038208008 26.01990127563477 C 109.9986038208008 25.31367111206055 109.8760299682617 24.6949405670166 109.6126480102539 24.07228660583496 C 109.3573760986328 23.46870803833008 109.002685546875 22.94470977783203 108.5281829833984 22.4702091217041 C 108.0538330078125 21.99590110778809 107.5298385620117 21.64120864868164 106.9261856079102 21.38586235046387 C 106.3037948608398 21.12263298034668 105.6849899291992 21.0000171661377 104.9787216186523 21.0000171661377 L 20.99999046325684 21.0000171661377 L 20.99999046325684 31.03978538513184 L 104.9787216186523 31.03978538513184 M 104.9787216186523 52.03978729248047 L -9.596604286343791e-06 52.03978729248047 L -9.596604286343791e-06 1.666024945734534e-05 L 104.9787216186523 1.666024945734534e-05 C 108.4913787841797 1.666024945734534e-05 111.8989486694336 0.687978208065033 115.1067962646484 2.044785976409912 C 118.2052612304688 3.355324268341064 120.9879150390625 5.231439590454102 123.3775253295898 7.62109375 C 125.7671432495117 10.01070880889893 127.6432952880859 12.79340171813965 128.9537963867188 15.89182472229004 C 130.3106384277344 19.09967041015625 130.9986114501953 22.50724792480469 130.9986114501953 26.01990127563477 C 130.9986114501953 29.53255462646484 130.3106384277344 32.94013214111328 128.9537963867188 36.14797973632812 C 127.6432952880859 39.24640274047852 125.7671432495117 42.02909469604492 123.3775253295898 44.41870880126953 C 120.9879150390625 46.8083610534668 118.2052612304688 48.68447875976562 115.1067962646484 49.99501800537109 C 111.8989486694336 51.35182571411133 108.4913787841797 52.03978729248047 104.9787216186523 52.03978729248047 Z" stroke="none" fill="#f3cf3d"/>
      </g>
      <g id="Subtraction_12" data-name="Subtraction 12" transform="translate(0 33.96)" fill="none">
        <path d="M104.979,52.04H0V0H104.979a26.027,26.027,0,0,1,10.128,50A25.857,25.857,0,0,1,104.979,52.04Z" stroke="none"/>
        <path d="M 104.9787216186523 31.03978538513184 C 105.6849899291992 31.03978538513184 106.3037948608398 30.91716957092285 106.9262237548828 30.65394020080566 C 107.5298385620117 30.39859390258789 108.0538330078125 30.04390144348145 108.5282974243164 29.56947898864746 C 109.002685546875 29.0950927734375 109.3573760986328 28.57109451293945 109.6128005981445 27.96717071533203 C 109.8760299682617 27.34486198425293 109.9986038208008 26.72613143920898 109.9986038208008 26.01990127563477 C 109.9986038208008 25.31367111206055 109.8760299682617 24.6949405670166 109.6126480102539 24.07228660583496 C 109.3573760986328 23.46870803833008 109.002685546875 22.94470977783203 108.5281829833984 22.4702091217041 C 108.0538330078125 21.99590110778809 107.5298385620117 21.64120864868164 106.9261856079102 21.38586235046387 C 106.3037948608398 21.12263298034668 105.6849899291992 21.0000171661377 104.9787216186523 21.0000171661377 L 20.99999046325684 21.0000171661377 L 20.99999046325684 31.03978538513184 L 104.9787216186523 31.03978538513184 M 104.9787216186523 52.03978729248047 L -9.596604286343791e-06 52.03978729248047 L -9.596604286343791e-06 1.666024945734534e-05 L 104.9787216186523 1.666024945734534e-05 C 108.4913787841797 1.666024945734534e-05 111.8989486694336 0.687978208065033 115.1067962646484 2.044785976409912 C 118.2052612304688 3.355324268341064 120.9879150390625 5.231439590454102 123.3775253295898 7.62109375 C 125.7671432495117 10.01070880889893 127.6432952880859 12.79340171813965 128.9537963867188 15.89182472229004 C 130.3106384277344 19.09967041015625 130.9986114501953 22.50724792480469 130.9986114501953 26.01990127563477 C 130.9986114501953 29.53255462646484 130.3106384277344 32.94013214111328 128.9537963867188 36.14797973632812 C 127.6432952880859 39.24640274047852 125.7671432495117 42.02909469604492 123.3775253295898 44.41870880126953 C 120.9879150390625 46.8083610534668 118.2052612304688 48.68447875976562 115.1067962646484 49.99501800537109 C 111.8989486694336 51.35182571411133 108.4913787841797 52.03978729248047 104.9787216186523 52.03978729248047 Z" stroke="none" fill="#f3cf3d"/>
      </g>
    </g>
    <path id="Exclusion_4" data-name="Exclusion 4" d="M148,88H29A28.976,28.976,0,0,1,0,59V29A28.975,28.975,0,0,1,29,0H148a28.975,28.975,0,0,1,29,29V59a28.976,28.976,0,0,1-29,29ZM47,19.442a19.021,19.021,0,0,0-19,19V49.558a19.022,19.022,0,0,0,19,19h83a19.022,19.022,0,0,0,19-19V38.442a19.021,19.021,0,0,0-19-19Z" transform="translate(683 256)" fill="#f3cf3d"/>
  </g>
</svg>
