<svg xmlns="http://www.w3.org/2000/svg" width="510" height="204" viewBox="0 0 510 204">
  <g id="section" transform="translate(-102 -510)">
    <path id="Path_182" data-name="Path 182" d="M-40.5,8.75h510v204h-510Z" transform="translate(142.5 501.25)" fill="#3498db"/>
    <g id="Group_186" data-name="Group 186" transform="translate(1 -11)">
      <g id="Group_182" data-name="Group 182" transform="translate(0.424)">
        <path id="Path_183" data-name="Path 183" d="M-40.5,8.75H73.793V46.836H-40.5Z" transform="translate(194.076 594.25)" fill="#fff"/>
        <path id="Path_185" data-name="Path 185" d="M-40.5,8.75H73.793V46.836H-40.5Z" transform="translate(194.076 651.25)" fill="#fff"/>
        <path id="Path_184" data-name="Path 184" d="M-40.5,8.75H73.793V46.836H-40.5Z" transform="translate(194.076 538.25)" fill="#fff"/>
      </g>
      <g id="Group_184" data-name="Group 184" transform="translate(145.422)">
        <path id="Path_183-2" data-name="Path 183" d="M-40.5,8.75H73.793V46.836H-40.5Z" transform="translate(194.076 594.25)" fill="#fff"/>
        <path id="Path_185-2" data-name="Path 185" d="M-40.5,8.75H73.793V46.836H-40.5Z" transform="translate(194.076 651.25)" fill="#fff"/>
        <path id="Path_184-2" data-name="Path 184" d="M-40.5,8.75H73.793V46.836H-40.5Z" transform="translate(194.076 538.25)" fill="#fff"/>
      </g>
      <g id="Group_185" data-name="Group 185" transform="translate(290.424)">
        <path id="Path_183-3" data-name="Path 183" d="M-40.5,8.75H73.793V46.836H-40.5Z" transform="translate(194.076 594.25)" fill="#fff"/>
        <path id="Path_185-3" data-name="Path 185" d="M-40.5,8.75H73.793V46.836H-40.5Z" transform="translate(194.076 651.25)" fill="#fff"/>
        <path id="Path_184-3" data-name="Path 184" d="M-40.5,8.75H73.793V46.836H-40.5Z" transform="translate(194.076 538.25)" fill="#fff"/>
      </g>
    </g>
  </g>
</svg>
