<svg xmlns="http://www.w3.org/2000/svg" width="591.769" height="467.531" viewBox="0 0 591.769 467.531">
  <g id="user-pc" transform="translate(0)">
    <rect id="Rectangle_62" data-name="Rectangle 62" width="354.887" height="168.4" transform="translate(236.882 9.729)" fill="#e6e6e6"/>
    <rect id="Rectangle_75" data-name="Rectangle 75" width="334.592" height="140.502" transform="translate(247.03 24.17)" fill="#fff"/>
    <rect id="Rectangle_80" data-name="Rectangle 80" width="354.887" height="15.077" transform="translate(236.731)" fill="#f3cf3d"/>
    <circle id="Ellipse_90" data-name="Ellipse 90" cx="2.794" cy="2.794" r="2.794" transform="translate(245.14 6.071)" fill="#fff"/>
    <circle id="Ellipse_91" data-name="Ellipse 91" cx="2.794" cy="2.794" r="2.794" transform="translate(255.747 6.071)" fill="#fff"/>
    <circle id="Ellipse_92" data-name="Ellipse 92" cx="2.794" cy="2.794" r="2.794" transform="translate(266.353 6.071)" fill="#fff"/>
    <rect id="Rectangle_43" data-name="Rectangle 43" width="55.629" height="95.033" transform="translate(447.222 46.905)" fill="#f2f2f2"/>
    <rect id="Rectangle_44" data-name="Rectangle 44" width="112.205" height="26.159" transform="translate(325.8 46.904)" fill="#f3cf3d"/>
    <rect id="Rectangle_45" data-name="Rectangle 45" width="112.205" height="28.146" transform="translate(325.8 80.347)" fill="#f2f2f2"/>
    <rect id="Rectangle_46" data-name="Rectangle 46" width="112.205" height="26.159" transform="translate(325.8 115.777)" fill="#f2f2f2"/>
    <path id="Path_115" data-name="Path 115" d="M406.858,488.621a13.676,13.676,0,0,0-15.148-13.672,13.176,13.176,0,0,0-1.8.331l-46.281-39.671L346.4,420.7l-22.811-7.393-6.878,23.89a13.857,13.857,0,0,0,5.879,15.465l56.934,36.01a13.05,13.05,0,0,0,.07,1.341,13.676,13.676,0,0,0,16.6,11.866,13.31,13.31,0,0,0,1.611-.465,13.717,13.717,0,0,0,9.052-12.794Z" transform="translate(-237.542 -207.628)" fill="#9f616a"/>
    <path id="Path_116" data-name="Path 116" d="M279.564,571.807h59.672c0,1.715,61.5,3.107,61.5,3.107a15.986,15.986,0,0,1,2.622,2.486,15.425,15.425,0,0,1,3.6,9.943v2.486a15.542,15.542,0,0,1-15.537,15.537H279.564a15.55,15.55,0,0,1-15.536-15.536v-2.486A15.558,15.558,0,0,1,279.564,571.807Z" transform="translate(-225.308 -244.806)" fill="#3f3d56"/>
    <rect id="Rectangle_47" data-name="Rectangle 47" width="16.158" height="104.405" transform="translate(103.007 359.942)" fill="#3f3d56"/>
    <path id="Path_117" data-name="Path 117" d="M395.688,747.59c0,1.955-24.485.756-54.688.756s-54.688,1.2-54.688-.756S310.8,730.133,341,730.133,395.688,745.635,395.688,747.59Z" transform="translate(-230.535 -281.944)" fill="#3f3d56"/>
    <path id="Path_118" data-name="Path 118" d="M196.706,577.8l15.237,0,7.249-39.521-22.489,0Z" transform="translate(-46.14 -126.262)" fill="#9f616a"/>
    <path id="Path_119" data-name="Path 119" d="M405.072,747.76l49.133,0v-.621a19.124,19.124,0,0,0-19.124-19.124h-30.01Z" transform="translate(-258.392 -281.446)" fill="#2f2e41"/>
    <path id="Path_120" data-name="Path 120" d="M406.81,659.416l30.378-68.121a24.965,24.965,0,0,0-10.961-32.047l-65.891-35.333-30.067-2.557-27.735-2.521-.2.339c-.256.432-6.219,10.732-2.188,22.027,3.058,8.567,11.011,15.258,23.639,19.889,29.475,10.807,63.524,20.044,76.795,23.513a4.29,4.29,0,0,1,2.748,2.187,4.349,4.349,0,0,1,.244,3.479l-28.222,63.407a5.593,5.593,0,0,0,4.735,7.494l21.088,1.536q.269.025.535.025a5.589,5.589,0,0,0,5.1-3.315Z" transform="translate(-233.453 -232.381)" fill="#cbcbcb"/>
    <path id="Path_121" data-name="Path 121" d="M183.715,577.8l15.237,0,7.25-39.521-22.489,0Z" transform="translate(-43.093 -126.262)" fill="#9f616a"/>
    <path id="Path_122" data-name="Path 122" d="M392.082,747.76l49.133,0v-.621a19.123,19.123,0,0,0-19.124-19.124h-30.01Z" transform="translate(-255.345 -281.447)" fill="#2f2e41"/>
    <path id="Path_123" data-name="Path 123" d="M394.1,664.391l30.378-68.121a24.965,24.965,0,0,0-10.961-32.047l-65.891-35.333-30.067-2.557-21.724-1.884,0-.3c-.256.432-6.219,10.732-2.188,22.026,3.058,8.567,4.8,15.258,17.424,19.889,29.475,10.807,63.524,20.044,76.795,23.513a4.29,4.29,0,0,1,2.748,2.187,4.348,4.348,0,0,1,.244,3.479l-28.222,63.407a5.593,5.593,0,0,0,4.735,7.494l21.088,1.536q.269.025.535.025A5.589,5.589,0,0,0,394.1,664.391Z" transform="translate(-231.929 -233.627)" fill="#cbcbcb"/>
    <path id="Path_124" data-name="Path 124" d="M333.214,493.983c1.456-1.03,22.372,9.943,26.1,1.243-17.4-43.5-5.41-62.287-16.069-87.233a31.062,31.062,0,0,0-20.591-17.624L295,388.973l-.143.069a32.322,32.322,0,0,0-17.673,34.29c.1,27.149,16.342,47.856,10.662,67.547a6.366,6.366,0,0,0,.6,4.951,6.07,6.07,0,0,0,3.873,2.87l36.515-4.871a6.17,6.17,0,0,0,4.992-.966Z" transform="translate(-228.293 -201.92)" fill="#2f2e41"/>
    <circle id="Ellipse_19" data-name="Ellipse 19" cx="30.527" cy="30.527" r="30.527" transform="translate(45.411 115.669)" fill="#9f616a"/>
    <path id="Path_125" data-name="Path 125" d="M291.529,351.373c1.622.71,4.943-12.214,3.456-14.8-2.213-3.844-2.082-3.817-3.551-6.36s-1.8-6.025.1-8.262,6.3-1.941,7.172.865c-.558-5.329,4.713-9.613,9.935-10.817s10.729-.456,15.98-1.528c6.093-1.243,12.433-6.351,10-13.051a9.439,9.439,0,0,0-1.841-3.025c-2.809-3.158-6.738-4.507-10.58-5.811-7.992-2.713-16.2-5.459-24.637-5.16a35.793,35.793,0,0,0-31.627,23.13,32.5,32.5,0,0,0-1.347,5c-2.9,15.567,6.145,30.921,20.826,36.849Z" transform="translate(-225.315 -177.157)" fill="#2f2e41"/>
    <path id="Path_126" data-name="Path 126" d="M500.618,436.01l3.5,20.786a1.28,1.28,0,0,1-.074.688l-27.464,68.624a1.28,1.28,0,0,1-2.466-.421l-1.163-27.577a1.28,1.28,0,0,1,.093-.536l25.127-61.833a1.28,1.28,0,0,1,2.447.269Z" transform="translate(-274.314 -212.703)" fill="#3f3d56"/>
    <path id="Path_127" data-name="Path 127" d="M285.695,293.823l3.327,17.858L264.649,374.3l-3.164-20.144Z" transform="translate(-61.335 -68.92)" fill="#f3cf3d"/>
    <path id="Path_128" data-name="Path 128" d="M367.241,542.933c.6,2.341,79.33,4.875,80.146,4.167a16.586,16.586,0,0,0,1.894-2.93c.825-1.474,1.589-2.952,1.589-2.952l-1.294-24.9-77.555-8.288s-3.431,20.778-4.508,30.324A22.927,22.927,0,0,0,367.241,542.933Z" transform="translate(-249.514 -229.847)" fill="#3f3d56"/>
    <path id="Path_129" data-name="Path 129" d="M237.6,376.988l.007,21.451L203.309,396l1.518-21.343Z" transform="translate(-47.689 -87.881)" opacity="0.1"/>
    <path id="Path_130" data-name="Path 130" d="M183.444,382.125l.207-.026-1.62,9.119-19.057-1.355.651-9.148Z" transform="translate(-38.228 -89.302)" opacity="0.1"/>
    <path id="Path_131" data-name="Path 131" d="M367.241,552.225c.6,2.341,79.33,4.875,80.146,4.167a16.591,16.591,0,0,0,1.894-2.93l-81.768-5.814A22.934,22.934,0,0,0,367.241,552.225Z" transform="translate(-249.514 -239.139)" opacity="0.1"/>
    <path id="Path_132" data-name="Path 132" d="M321.821,493.261l66.412,12.394a13.067,13.067,0,0,0,.562,1.22,13.706,13.706,0,0,0,8.8,6.868,13.672,13.672,0,1,0-3.12-25.351,13.136,13.136,0,0,0-1.546.974l-57.684-19.705-2.952-14.872-23.927,1.583,2.479,24.93A13.6,13.6,0,0,0,321.821,493.261Z" transform="translate(-235.707 -217.358)" fill="#9f616a"/>
    <path id="Path_133" data-name="Path 133" d="M307.2,457.89l34.768-11.427-8.11-23.287a13.881,13.881,0,0,0-15.391-9.127h0a13.881,13.881,0,0,0-11.6,13.846Z" transform="translate(-235.357 -207.757)" fill="#2f2e41"/>
    <path id="Path_134" data-name="Path 134" d="M505.839,754.933H214.208a.765.765,0,1,1,0-1.531H505.839a.765.765,0,1,1,0,1.531Z" transform="translate(-213.443 -287.402)" fill="#cbcbcb"/>
    <path id="Path_135" data-name="Path 135" d="M734.32,722.568c13.987,7.239,20.206,23,20.206,23s-16.459,4.025-30.446-3.214-20.206-23-20.206-23S720.332,715.329,734.32,722.568Z" transform="translate(-328.481 -279.154)" fill="#f1f1f1"/>
    <path id="Path_136" data-name="Path 136" d="M735.944,721.488c8.347,13.356,24.56,18.279,24.56,18.279s2.68-16.731-5.667-30.087-24.56-18.279-24.56-18.279S727.6,708.132,735.944,721.488Z" transform="translate(-334.578 -272.859)" fill="#f1f1f1"/>
    <path id="Path_137" data-name="Path 137" d="M776.468,754.536h-87.26a.766.766,0,0,1,0-1.531h87.26a.766.766,0,0,1,0,1.531Z" transform="translate(-324.861 -287.309)" fill="#cbcbcb"/>
  </g>
</svg>
