<svg xmlns="http://www.w3.org/2000/svg" width="46.617" height="44.01" viewBox="0 0 46.617 44.01">
  <g id="border-radius-each" transform="translate(-398 -753.939)">
    <g id="Group_253" data-name="Group 253" transform="translate(399.5 755.5)">
      <path id="border-radiaus-top-left" d="M-.037,18.175.182,4.188a5.5,5.5,0,0,1,1.2-2.926A3.163,3.163,0,0,1,4.038.052L19.266-.035" transform="matrix(1, 0.017, -0.017, 1, 0.354, 0)" fill="none" stroke="#fff" stroke-width="3"/>
      <path id="border-bottom-left-radius" d="M0,0,.219,13.987a5.5,5.5,0,0,0,1.2,2.926,3.163,3.163,0,0,0,2.655,1.21L19.3,18.21" transform="matrix(1, -0.017, 0.017, 1, 0, 22.715)" fill="none" stroke="#fff" stroke-width="3"/>
    </g>
    <g id="Group_254" data-name="Group 254" transform="translate(423.5 755.5)">
      <path id="border-top-right-radius" d="M0,0,.219,13.987a5.5,5.5,0,0,0,1.2,2.926,3.163,3.163,0,0,0,2.655,1.21L19.3,18.21" transform="matrix(-1, 0.017, -0.017, -1, 19.617, 18.172)" fill="none" stroke="#fff" stroke-width="3"/>
      <path id="border-bottom-right-radius" d="M-.037,18.175.182,4.188a5.5,5.5,0,0,1,1.2-2.926A3.163,3.163,0,0,1,4.038.052L19.266-.035" transform="matrix(-1, -0.017, 0.017, -1, 19.263, 40.887)" fill="none" stroke="#fff" stroke-width="3"/>
    </g>
  </g>
</svg>
