<svg xmlns="http://www.w3.org/2000/svg" width="2866" height="903" viewBox="0 0 2866 903">
  <g id="placeholder" transform="translate(11262 8396)">
    <g id="Group_159" data-name="Group 159">
      <g id="placeholder-2" data-name="placeholder" transform="translate(-11262 -8396)" fill="#d6d6d6">
        <path d="M 2865.5 902.5 L 0.5 902.5 L 0.5 0.5 L 2865.5 0.5 L 2865.5 902.5 Z" stroke="none"/>
        <path d="M 1 1 L 1 902 L 2865 902 L 2865 1 L 1 1 M 0 0 L 2866 0 L 2866 903 L 0 903 L 0 0 Z" stroke="none" fill="#707070"/>
      </g>
      <path id="Icon_awesome-image" data-name="Icon awesome-image" d="M647.787,540.6H67.012A67.012,67.012,0,0,1,0,473.587V71.512A67.012,67.012,0,0,1,67.012,4.5H647.787A67.012,67.012,0,0,1,714.8,71.512V473.587A67.012,67.012,0,0,1,647.787,540.6ZM156.362,82.681a78.181,78.181,0,1,0,78.181,78.181A78.181,78.181,0,0,0,156.362,82.681ZM89.35,451.25h536.1V294.887L503.271,172.708a16.755,16.755,0,0,0-23.693,0L290.387,361.9l-77.5-77.5a16.755,16.755,0,0,0-23.693,0L89.35,384.237Z" transform="translate(-10186 -8217.5)" fill="#bfbfbf"/>
    </g>
  </g>
</svg>
