<svg xmlns="http://www.w3.org/2000/svg" width="516.512" height="516.613" viewBox="0 0 516.512 516.613">
  <g id="web" transform="translate(503.4 1988.55)">
    <path id="Path_106" data-name="Path 106" d="M246.537-1279.49c-38.452,2.262-71.289,10.946-104.005,27.425A258.483,258.483,0,0,0,5.245-1071.318C1.812-1053.95.6-1040.742.6-1021.234c0,16.237.444,23.023,2.423,36.755a257.783,257.783,0,0,0,89.99,161.44,257.665,257.665,0,0,0,135.146,58.445,214.079,214.079,0,0,0,30.7,1.656c14.5,0,19.589-.283,32.11-1.858A258.492,258.492,0,0,0,490.212-905.919a255.992,255.992,0,0,0,24.477-78.559c1.979-13.692,2.423-20.518,2.423-36.553,0-16.075-.485-23.548-2.423-36.957-16.2-113.416-105.742-202.962-219.077-219.118a221.852,221.852,0,0,0-33.524-2.383C254.857-1279.57,247.87-1279.57,246.537-1279.49Zm29.2,28.718c13.006,13.692,18.822,20.236,26.617,29.849,17.247,21.407,32.393,44.753,43.42,67.21,3.312,6.7,8.4,17.893,8.2,18.095-.363.364-10.461,3.272-17.974,5.13a307.739,307.739,0,0,1-33.928,6.664c-6.059.889-14.46,1.7-27.344,2.625l-3.352.2v-66.644c0-52.669.121-66.644.485-66.644A21.169,21.169,0,0,1,275.739-1250.772Zm-29.4,63.938v65.877l-2.908-.242c-1.616-.121-5.574-.4-8.805-.606a316.647,316.647,0,0,1-38.169-5.291c-10.663-2.141-30.091-7.23-30.091-7.876,0-.121,1.373-3.312,3.07-7.149,14.379-32.393,34.332-63.332,59.495-92.252,5.857-6.7,16.641-18.3,17.085-18.3C246.173-1252.67,246.335-1223.024,246.335-1186.834Zm-38.613-61.717c-.2.283-1.7,2.141-3.393,4.16-23.992,28.354-44.995,61.918-58.768,93.948-1.616,3.8-3.07,6.988-3.191,7.109-.565.565-23.628-10.057-33.443-15.429-11.269-6.18-25.769-15.146-25.769-15.954s20.034-20.518,25.244-24.8c25.85-21.407,52.709-35.947,83.568-45.278,2.787-.808,15.268-4.16,15.914-4.241C207.964-1249.035,207.883-1248.793,207.722-1248.551Zm110.1,1.575a232.434,232.434,0,0,1,96.694,52.023c5.372,4.847,18.9,18.5,19.67,19.872.323.646-.2,1.131-4.241,3.756a322.032,322.032,0,0,1-33.564,18.862c-7.391,3.554-17.449,8.038-18.135,8.038-.242,0-1.616-2.666-3.07-5.978-13.288-30.374-32.312-60.949-55.5-89.1-2.908-3.514-5.7-6.947-6.22-7.553-.525-.646-.808-1.171-.606-1.171C313.019-1248.227,315.281-1247.662,317.826-1246.975ZM83.844-1144.061a328.5,328.5,0,0,0,41.36,21.043c4.322,1.858,8,3.474,8.159,3.635a9.151,9.151,0,0,1-.687,3.474,342.79,342.79,0,0,0-10.3,43.379c-1.737,10.5-3.676,28.475-3.676,33.847a27.24,27.24,0,0,1-.242,3.676l-.283,1.252-46.085-.081-46.085-.121.121-2.423c.929-19.468,5.574-42.208,12.885-63.009,6.22-17.651,17.045-39.057,26.617-52.588l1.777-2.5,5.251,3.393C75.524-1149.19,80.573-1146.04,83.844-1144.061Zm369.814-5.493a234.321,234.321,0,0,1,29.768,64.988,241.925,241.925,0,0,1,7.876,43.945c.121,1.9.323,4.2.444,5.13l.2,1.737H402.767l-.283-5.17a320.87,320.87,0,0,0-13.208-73.389c-1.131-3.8-2.1-7.189-2.141-7.593-.04-.565,1.616-1.414,7.391-3.918a348.849,348.849,0,0,0,46.934-24.961c3.878-2.464,7.391-4.726,7.836-5.049.444-.364.929-.525,1.091-.444A49.406,49.406,0,0,1,453.658-1149.554Zm-89.747,40.471a289.306,289.306,0,0,1,12.642,62.2c.323,3.554.646,7.917.727,9.694l.121,3.231-52.992.121-53.033.081v-62.04l8-.485c25.648-1.535,54.406-6.664,77.428-13.773a44.711,44.711,0,0,1,5.816-1.535C362.9-1111.546,363.507-1110.416,363.911-1109.083Zm-199.892-.04a343.344,343.344,0,0,0,74.359,12.844l7.957.485v62.04H143.743v-1.777c0-2.948,1.171-16.156,2.06-22.861a306.551,306.551,0,0,1,7.674-38.613c1.9-7.109,3.958-13.894,4.2-13.894C157.759-1110.9,160.627-1110.092,164.019-1109.123Zm-45.56,101.3a20.4,20.4,0,0,1,.242,3.352c0,3.393,1.05,14.9,2.02,22.619a330.051,330.051,0,0,0,13.329,58.889c1.091,3.352,1.858,6.26,1.7,6.382a52.157,52.157,0,0,1-5.332,2.3,341.386,341.386,0,0,0-52.629,27.062c-3.756,2.3-6.947,4.079-7.109,3.878-.889-.969-6.341-8.967-8.845-12.965a231.613,231.613,0,0,1-32.353-82.517c-1.333-7.109-2.666-17.368-3.07-23.022-.121-1.9-.323-4.2-.444-5.17l-.2-1.7h92.453Zm127.876,33.807v34.7l-3.918.242c-24.315,1.575-40.188,3.8-60.828,8.522-5.7,1.333-20.761,5.331-21.326,5.7-.283.162-3.393-9.209-5.574-16.8a301.611,301.611,0,0,1-10.784-62.726l-.283-4.322H246.335ZM377.4-1005.8c-.889,11.673-1.171,14.742-2.06,21.73a297.876,297.876,0,0,1-8.28,40.794c-2.1,7.351-5.978,19.387-6.261,19.387-.081,0-2.221-.606-4.726-1.373a346.68,346.68,0,0,0-47.539-10.5c-11.309-1.656-18.378-2.343-33.2-3.312l-3.958-.242v-69.391H377.644Zm114.345-1.414c-.121.848-.323,3.15-.444,5.17-2.181,31.908-13.086,67.21-29.768,96.331-4.16,7.19-12.642,20.316-14.5,22.376-.162.2-3.352-1.535-7.109-3.878-16.6-10.38-37-20.922-51.5-26.617-1.979-.767-3.554-1.575-3.554-1.858a14.274,14.274,0,0,1,.808-2.585c1.414-3.595,6.059-19.266,7.917-26.819a312.832,312.832,0,0,0,8.724-55.86l.485-7.755h89.182Zm-245.412,155.3L246.294-790l-4.483-4.645c-28.314-29.364-53.033-64.826-68.987-98.916a58.893,58.893,0,0,1-3.11-7.472c.364-.848,18.176-5.332,30.575-7.674,14.541-2.747,31.828-4.766,42.733-5.008l3.312-.081Zm42.612-60.828A320.191,320.191,0,0,1,346.3-901.84c2.02.565,3.958,1.171,4.362,1.252.364.121.687.4.687.687,0,.929-11.027,22.578-15.268,29.929a376.414,376.414,0,0,1-46.045,63.534c-8.32,9.411-17,18.256-17.893,18.256-.767,0-.767-1.535-.767-62.847v-62.888l5.776.283C280.3-913.472,285.635-913.068,288.947-912.745ZM152.023-878.858a383.764,383.764,0,0,0,51.5,79.165c2.868,3.433,5.13,6.26,5.008,6.26-.646,0-9.573-2.262-14.217-3.595A232.825,232.825,0,0,1,92.69-857.612l-5.614-5.614,3.393-2.221c13.208-8.563,34.736-19.589,51.255-26.254l3.433-1.373.969,2.06C146.692-889.884,149.317-884.432,152.023-878.858Zm230.71-10.017c12.723,5.412,33.443,16.277,44.51,23.426l3.393,2.221-5.816,5.857a233.059,233.059,0,0,1-89.788,56.627c-7.957,2.747-21.649,6.7-21.649,6.22,0-.081,2.141-2.747,4.766-5.9,21.69-25.971,40.269-54.89,53.4-83.042,2.1-4.483,4.039-8.118,4.281-8.118C376.109-891.581,379.219-890.369,382.733-888.875Z" transform="translate(-504 -709)" fill="#fff"/>
  </g>
</svg>
