<svg xmlns="http://www.w3.org/2000/svg" width="95" height="96" viewBox="0 0 95 96">
  <g id="align-left" transform="translate(-499 -309)">
    <g id="Group_190" data-name="Group 190">
      <g id="Rectangle_140" data-name="Rectangle 140" transform="translate(514 362)" fill="none" stroke="#fff" stroke-width="6">
        <rect width="80" height="33" rx="12" stroke="none"/>
        <rect x="3" y="3" width="74" height="27" rx="9" fill="none"/>
      </g>
      <g id="Rectangle_139" data-name="Rectangle 139" transform="translate(514 319)" fill="none" stroke="#fff" stroke-width="6">
        <rect width="65" height="33" rx="12" stroke="none"/>
        <rect x="3" y="3" width="59" height="27" rx="9" fill="none"/>
      </g>
      <g id="Path_187" data-name="Path 187" transform="translate(499 309)" fill="none">
        <path d="M3,0A3,3,0,0,1,6,3V93a3,3,0,0,1-6,0V3A3,3,0,0,1,3,0Z" stroke="none"/>
        <path d="M 3 0 C 4.65684986114502 0 6 1.343147277832031 6 3 L 6 93 C 6 94.65685272216797 4.65684986114502 96 3 96 C 1.34315013885498 96 0 94.65685272216797 0 93 L 0 3 C 0 1.343147277832031 1.34315013885498 0 3 0 Z" stroke="none" fill="#fff"/>
      </g>
    </g>
  </g>
</svg>
