<svg xmlns="http://www.w3.org/2000/svg" width="63.313" height="47.87" viewBox="0 0 63.313 47.87">
  <path id="froms-widget" d="M14.213,21.783H28.975V17.56H14.213Zm0,11.264H28.975V28.823H14.213Zm0,11.264H28.975V40.087H14.213ZM44.722,38.4l15.09-12.953-3.526-3.027-11.564,10L40.047,28.4,36.6,31.428ZM9.457,54.87a4.989,4.989,0,0,1-3.362-1.2A3.677,3.677,0,0,1,4.7,50.787v-39.7A3.677,3.677,0,0,1,6.094,8.2,4.989,4.989,0,0,1,9.457,7h53.8a4.989,4.989,0,0,1,3.362,1.2,3.677,3.677,0,0,1,1.394,2.886v39.7a3.677,3.677,0,0,1-1.394,2.886,4.989,4.989,0,0,1-3.362,1.2Zm0-3.168h53.8a.958.958,0,0,0,.7-.282.868.868,0,0,0,.287-.634v-39.7a.868.868,0,0,0-.287-.634.958.958,0,0,0-.7-.282H9.457a.958.958,0,0,0-.7.282.868.868,0,0,0-.287.634v39.7a.868.868,0,0,0,.287.634A.958.958,0,0,0,9.457,51.7Zm0,0a.958.958,0,0,1-.7-.282.868.868,0,0,1-.287-.634v-39.7a.868.868,0,0,1,.287-.634.958.958,0,0,1,.7-.282h53.8a.958.958,0,0,1,.7.282.868.868,0,0,1,.287.634v39.7a.868.868,0,0,1-.287.634.958.958,0,0,1-.7.282Z" transform="translate(-4.7 -7)" fill="#7b8282"/>
</svg>
