<svg xmlns="http://www.w3.org/2000/svg" width="812" height="474" viewBox="0 0 812 474">
  <g id="placeholder-image" transform="translate(13246 4878)">
    <g id="placeholder-image-2" data-name="placeholder-image" transform="translate(-14214 -5197)">
      <rect id="Rectangle_38" data-name="Rectangle 38" width="812" height="474" transform="translate(968 319)" fill="#b9b4b4"/>
    </g>
    <path id="Icon_awesome-file-image" data-name="Icon awesome-file-image" d="M126.711,40.238v2H84.474V0h2a7.919,7.919,0,0,1,5.6,2.319l32.318,32.318A7.92,7.92,0,0,1,126.711,40.238ZM81.834,52.8a7.943,7.943,0,0,1-7.919-7.919V0h-66A7.919,7.919,0,0,0,0,7.919V161.029a7.919,7.919,0,0,0,7.919,7.919H118.792a7.919,7.919,0,0,0,7.919-7.919V52.8Zm-44.7,5.28A15.839,15.839,0,1,1,21.3,73.915,15.839,15.839,0,0,1,37.137,58.076Zm68.635,79.194H21.3l.16-16L34.5,108.232a3.773,3.773,0,0,1,5.44.16l13.039,13.039L87.134,87.274a3.96,3.96,0,0,1,5.6,0l13.039,13.039Z" transform="translate(-12903 -4725)" fill="#1e272e"/>
  </g>
</svg>
