<svg xmlns="http://www.w3.org/2000/svg" width="85" height="85" viewBox="0 0 85 85">
  <g id="container" transform="translate(-0.348)">
    <g id="Path_188" data-name="Path 188" transform="translate(11.348 29)" fill="none">
      <path d="M3,0H61a3,3,0,0,1,3,3V24a3,3,0,0,1-3,3H3a3,3,0,0,1-3-3V3A3,3,0,0,1,3,0Z" stroke="none"/>
      <path d="M 5 5 L 5 22 L 59 22 L 59 5 L 5 5 M 3 0 L 61 0 C 62.65685272216797 0 64 1.343147277832031 64 3 L 64 24 C 64 25.65685272216797 62.65685272216797 27 61 27 L 3 27 C 1.343147277832031 27 0 25.65685272216797 0 24 L 0 3 C 0 1.343147277832031 1.343147277832031 0 3 0 Z" stroke="none" fill="#7b8282"/>
    </g>
    <g id="section" transform="translate(0)">
      <rect id="Rectangle_99" data-name="Rectangle 99" width="85" height="85" transform="translate(0.348)" fill="none"/>
      <g id="section-2" data-name="section" transform="translate(10 10)">
        <rect id="Rectangle_95" data-name="Rectangle 95" width="65" height="65" rx="4" transform="translate(0.348)" fill="none"/>
      </g>
    </g>
  </g>
</svg>
