<svg xmlns="http://www.w3.org/2000/svg" width="94" height="91" viewBox="0 0 94 91">
  <g id="db-list" transform="translate(-992 -537)">
    <path id="Icon_awesome-database" data-name="Icon awesome-database" d="M62.923,10.273v6.421c0,5.658-14.092,10.273-31.462,10.273S0,22.352,0,16.694V10.273C0,4.615,14.092,0,31.462,0S62.923,4.615,62.923,10.273Zm0,14.447V39.166c0,5.658-14.092,10.273-31.462,10.273S0,44.825,0,39.166V24.72c6.759,4.655,19.131,6.822,31.462,6.822S56.164,29.375,62.923,24.72Zm0,22.473V61.639c0,5.658-14.092,10.273-31.462,10.273S0,67.3,0,61.639V47.192c6.759,4.655,19.131,6.822,31.462,6.822S56.164,51.847,62.923,47.192Z" transform="translate(1004.077 538.218)" fill="#85ec9a"/>
    <g id="text" transform="translate(992.14 535)">
      <rect id="Rectangle_96" data-name="Rectangle 96" width="85" height="85" transform="translate(-0.14 2)" fill="none"/>
    </g>
    <g id="Ellipse_70" data-name="Ellipse 70" transform="translate(1036 578)" fill="#fff" stroke="#1f1f1f" stroke-width="1">
      <circle cx="25" cy="25" r="25" stroke="none"/>
      <circle cx="25" cy="25" r="24.5" fill="none"/>
    </g>
    <g id="Group_273" data-name="Group 273" transform="translate(-36.545 -37.257)">
      <path id="Icon_awesome-list" data-name="Icon awesome-list" d="M5.158,24.007H1.032A1.032,1.032,0,0,0,0,25.039v4.126A1.032,1.032,0,0,0,1.032,30.2H5.158A1.032,1.032,0,0,0,6.19,29.165V25.039A1.032,1.032,0,0,0,5.158,24.007Zm0-20.632H1.032A1.032,1.032,0,0,0,0,4.407V8.533A1.032,1.032,0,0,0,1.032,9.565H5.158A1.032,1.032,0,0,0,6.19,8.533V4.407A1.032,1.032,0,0,0,5.158,3.375Zm0,10.316H1.032A1.032,1.032,0,0,0,0,14.723v4.126a1.032,1.032,0,0,0,1.032,1.032H5.158A1.032,1.032,0,0,0,6.19,18.849V14.723A1.032,1.032,0,0,0,5.158,13.691ZM31.979,25.039H11.348a1.032,1.032,0,0,0-1.032,1.032v2.063a1.032,1.032,0,0,0,1.032,1.032H31.979a1.032,1.032,0,0,0,1.032-1.032V26.07A1.032,1.032,0,0,0,31.979,25.039Zm0-20.632H11.348a1.032,1.032,0,0,0-1.032,1.032V7.5a1.032,1.032,0,0,0,1.032,1.032H31.979A1.032,1.032,0,0,0,33.011,7.5V5.438A1.032,1.032,0,0,0,31.979,4.407Zm0,10.316H11.348a1.032,1.032,0,0,0-1.032,1.032v2.063a1.032,1.032,0,0,0,1.032,1.032H31.979a1.032,1.032,0,0,0,1.032-1.032V15.754A1.032,1.032,0,0,0,31.979,14.723Z" transform="translate(1080.534 624.936)" fill="#85ec9a"/>
    </g>
  </g>
</svg>
