<svg xmlns="http://www.w3.org/2000/svg" width="128" height="128" viewBox="0 0 128 128">
  <g id="vid" transform="translate(-1484 -366)">
    <rect id="Rectangle_288" data-name="Rectangle 288" width="128" height="128" transform="translate(1484 366)" fill="rgba(255,255,255,0)"/>
    <path id="vid-2" data-name="vid" d="M53.5,4.5H7.607A7.607,7.607,0,0,0,0,12.107V58a7.607,7.607,0,0,0,7.607,7.607H53.5A7.607,7.607,0,0,0,61.111,58v-45.9A7.607,7.607,0,0,0,53.5,4.5Zm30.142,6L66.2,22.531V47.58L83.645,59.6a5.1,5.1,0,0,0,8.021-4.106V14.606A5.105,5.105,0,0,0,83.645,10.5Z" transform="translate(1502 394.5)" fill="#8c8c8c"/>
  </g>
</svg>
